{
  "source": "C:\\Users\\Peter\\Desktop\\stuff\\MIUN\\quantitative_research\\video_compression\\videos\\BVI-HD\\BVI-HD_CDVL_videos\\ORIG\\Fountain_1920x1080_50fps.mp4",
  "output": "C:\\Users\\Peter\\Desktop\\stuff\\MIUN\\quantitative_research\\video_compression\\compressed_videos\\BVI-HD\\av1\\8\\Fountain_1920x1080_50fps_av1.mkv",
  "codec": "av1",
  "ok": "Input #0, mov,mp4,m4a,3gp,3g2,mj2, from 'C:\\Users\\Peter\\Desktop\\stuff\\MIUN\\quantitative_research\\video_compression\\videos\\BVI-HD\\BVI-HD_CDVL_videos\\ORIG\\Fountain_1920x1080_50fps.mp4':\n  Metadata:\n    major_brand     : isom\n    minor_version   : 512\n    compatible_brands: isomiso2avc1mp41\n    encoder         : Lavf54.28.101\n  Duration: 00:00:05.00, start: 0.000000, bitrate: 603457 kb/s\n  Stream #0:0[0x1](und): Video: h264 (High 4:4:4 Predictive) (avc1 / 0x31637661), yuv420p(progressive), 1920x1080, 603453 kb/s, 50 fps, 50 tbr, 50 tbn (default)\n    Metadata:\n      handler_name    : VideoHandler\n      vendor_id       : [0][0][0][0]\n[out#0/matroska @ 000001e620c0e9c0] Codec AVOption b:a (set bitrate (in bits/s)) has not been used for any stream. The most likely reason is either wrong type (e.g. a video option with no video streams) or that it is a private option of some decoder which was not actually used for any stream.\nStream mapping:\n  Stream #0:0 -> #0:0 (h264 (native) -> av1 (libsvtav1))\nPress [q] to stop, [?] for help\nSvt[info]: -------------------------------------------\nSvt[info]: SVT [version]:\tSVT-AV1 Encoder Lib v3.1.0-19-g6ecfe8ec\nSvt[info]: SVT [build]  :\tGCC 15.2.0\t 64 bit\nSvt[info]: LIB Build date: Aug 17 2025 11:37:13\nSvt[info]: -------------------------------------------\nSvt[info]: Level of Parallelism: 5\nSvt[info]: Number of PPCS 93\nSvt[info]: [asm level on system : up to avx2]\nSvt[info]: [asm level selected : up to avx2]\nSvt[info]: -------------------------------------------\nSvt[info]: SVT [config]: main profile\ttier (auto)\tlevel (auto)\nSvt[info]: SVT [config]: width / height / fps numerator / fps denominator \t\t: 1920 / 1080 / 50 / 1\nSvt[info]: SVT [config]: bit-depth / color format \t\t\t\t\t: 8 / YUV420\nSvt[info]: SVT [config]: preset / tune / pred struct \t\t\t\t\t: 4 / PSNR / random access\nSvt[info]: SVT [config]: gop size / mini-gop size / key-frame type \t\t\t: 321 / 16 / key frame\nSvt[info]: SVT [config]: BRC mode / target bitrate (kbps)\t\t\t\t: VBR / 8000 \nSvt[info]: SVT [config]: AQ mode / Variance Boost \t\t\t\t\t: 2 / 0\nSvt[info]: SVT [config]: sharpness / luminance-based QP bias \t\t\t\t: 0 / 0\nSvt[info]: SVT [config]: QP scale compress strength \t\t\t\t\t: 0\nSvt[info]: -------------------------------------------\nOutput #0, matroska, to 'C:\\Users\\Peter\\Desktop\\stuff\\MIUN\\quantitative_research\\video_compression\\compressed_videos\\BVI-HD\\av1\\8\\Fountain_1920x1080_50fps_av1.mkv':\n  Metadata:\n    major_brand     : isom\n    minor_version   : 512\n    compatible_brands: isomiso2avc1mp41\n    encoder         : Lavf62.3.100\n  Stream #0:0(und): Video: av1 (AV01 / 0x31305641), yuv420p(tv, progressive), 1920x1080, q=2-31, 8000 kb/s, 50 fps, 1k tbn (default)\n    Metadata:\n      encoder         : Lavc62.11.100 libsvtav1\n      handler_name    : VideoHandler\n      vendor_id       : [0][0][0][0]\n    Side data:\n      cpb: bitrate max/min/avg: 0/0/8000000 buffer size: 8000000 vbv_delay: N/A\nframe=    0 fps=0.0 q=0.0 size=       0KiB time=N/A bitrate=N/A speed=N/A elapsed=0:00:01.61    \nframe=    0 fps=0.0 q=0.0 size=       0KiB time=N/A bitrate=N/A speed=N/A elapsed=0:00:02.26    \nframe=    0 fps=0.0 q=0.0 size=       0KiB time=N/A bitrate=N/A speed=N/A elapsed=0:00:02.84    \nframe=    0 fps=0.0 q=0.0 size=       0KiB time=N/A bitrate=N/A speed=N/A elapsed=0:00:03.37    \nframe=    0 fps=0.0 q=0.0 size=       0KiB time=N/A bitrate=N/A speed=N/A elapsed=0:00:03.97    \nframe=    0 fps=0.0 q=0.0 size=       0KiB time=N/A bitrate=N/A speed=N/A elapsed=0:00:04.53    \nframe=    0 fps=0.0 q=0.0 size=       0KiB time=N/A bitrate=N/A speed=N/A elapsed=0:00:05.05    \nframe=    0 fps=0.0 q=0.0 size=       0KiB time=N/A bitrate=N/A speed=N/A elapsed=0:00:05.60    \nframe=    1 fps=0.2 q=20.0 size=       1KiB time=00:00:00.00 bitrate=N/A speed=   0x elapsed=0:00:06.15    \nframe=    1 fps=0.1 q=20.0 size=       1KiB time=00:00:00.00 bitrate=N/A speed=   0x elapsed=0:00:06.68    \nframe=    1 fps=0.1 q=20.0 size=       1KiB time=00:00:00.00 bitrate=N/A speed=   0x elapsed=0:00:07.24    \nframe=    2 fps=0.3 q=36.0 size=       1KiB time=00:00:00.02 bitrate= 285.2kbits/s speed=0.00258x elapsed=0:00:07.76    \nframe=    6 fps=0.7 q=36.0 size=       1KiB time=00:00:00.10 bitrate=  57.0kbits/s speed=0.012x elapsed=0:00:08.33    \nframe=    8 fps=0.9 q=36.0 size=       1KiB time=00:00:00.14 bitrate=  40.7kbits/s speed=0.0158x elapsed=0:00:08.88    \nframe=   10 fps=1.1 q=36.0 size=       1KiB time=00:00:00.18 bitrate=  31.7kbits/s speed=0.019x elapsed=0:00:09.46    \nframe=   12 fps=1.2 q=35.0 size=       1KiB time=00:00:00.22 bitrate=  25.9kbits/s speed=0.0219x elapsed=0:00:10.06    \nframe=   16 fps=1.5 q=35.0 size=       1KiB time=00:00:00.30 bitrate=  19.0kbits/s speed=0.0283x elapsed=0:00:10.61    \nframe=   18 fps=1.6 q=36.0 size=       1KiB time=00:00:00.34 bitrate=  16.8kbits/s speed=0.0305x elapsed=0:00:11.13    \nframe=   20 fps=1.7 q=36.0 size=       1KiB time=00:00:00.38 bitrate=  15.0kbits/s speed=0.0325x elapsed=0:00:11.69    \nframe=   22 fps=1.8 q=35.0 size=       1KiB time=00:00:00.42 bitrate=  13.6kbits/s speed=0.0343x elapsed=0:00:12.25    \nframe=   23 fps=1.8 q=33.0 size=       1KiB time=00:00:00.44 bitrate=  13.0kbits/s speed=0.0344x elapsed=0:00:12.80    \nframe=   25 fps=1.9 q=27.0 size=       1KiB time=00:00:00.48 bitrate=  11.9kbits/s speed=0.0356x elapsed=0:00:13.48    \nframe=   27 fps=1.9 q=33.0 size=       1KiB time=00:00:00.52 bitrate=  11.0kbits/s speed=0.037x elapsed=0:00:14.06    \nframe=   28 fps=1.9 q=35.0 size=       1KiB time=00:00:00.54 bitrate=  10.6kbits/s speed=0.0366x elapsed=0:00:14.74    \nframe=   31 fps=2.0 q=33.0 size=       1KiB time=00:00:00.60 bitrate=   9.5kbits/s speed=0.039x elapsed=0:00:15.37    \nframe=   34 fps=2.1 q=36.0 size=       1KiB time=00:00:00.64 bitrate=   8.9kbits/s speed=0.0402x elapsed=0:00:15.91    \nframe=   35 fps=2.1 q=35.0 size=       1KiB time=00:00:00.68 bitrate=   8.4kbits/s speed=0.0412x elapsed=0:00:16.48    \nframe=   37 fps=2.2 q=33.0 size=       1KiB time=00:00:00.72 bitrate=   7.9kbits/s speed=0.0422x elapsed=0:00:17.04    \nframe=   39 fps=2.2 q=35.0 size=       1KiB time=00:00:00.76 bitrate=   7.5kbits/s speed=0.0431x elapsed=0:00:17.64    \nframe=   40 fps=2.2 q=36.0 size=       1KiB time=00:00:00.78 bitrate=   7.3kbits/s speed=0.0428x elapsed=0:00:18.22    \nframe=   43 fps=2.3 q=34.0 size=       1KiB time=00:00:00.84 bitrate=   6.8kbits/s speed=0.0447x elapsed=0:00:18.79    \nframe=   46 fps=2.4 q=37.0 size=       1KiB time=00:00:00.88 bitrate=   6.5kbits/s speed=0.0454x elapsed=0:00:19.37    \nframe=   50 fps=2.5 q=37.0 size=       1KiB time=00:00:00.98 bitrate=   5.8kbits/s speed=0.0492x elapsed=0:00:19.93    \nframe=   53 fps=2.6 q=34.0 size=       1KiB time=00:00:01.04 bitrate=   5.5kbits/s speed=0.0508x elapsed=0:00:20.47    \nframe=   55 fps=2.6 q=31.0 size=       1KiB time=00:00:01.08 bitrate=   5.3kbits/s speed=0.0514x elapsed=0:00:20.99    \nframe=   58 fps=2.7 q=37.0 size=       1KiB time=00:00:01.14 bitrate=   5.0kbits/s speed=0.0528x elapsed=0:00:21.59    \nframe=   61 fps=2.8 q=31.0 size=       1KiB time=00:00:01.18 bitrate=   4.8kbits/s speed=0.0533x elapsed=0:00:22.11    \nframe=   65 fps=2.9 q=25.0 size=       1KiB time=00:00:01.28 bitrate=   4.5kbits/s speed=0.0565x elapsed=0:00:22.65    \nframe=   70 fps=3.0 q=38.0 size=       1KiB time=00:00:01.38 bitrate=   4.1kbits/s speed=0.0595x elapsed=0:00:23.17    \nframe=   71 fps=3.0 q=37.0 size=       1KiB time=00:00:01.40 bitrate=   4.1kbits/s speed=0.0591x elapsed=0:00:23.68    \nframe=   76 fps=3.1 q=39.0 size=       1KiB time=00:00:01.50 bitrate=   3.8kbits/s speed=0.062x elapsed=0:00:24.20    \nframe=   81 fps=3.3 q=24.0 size=       1KiB time=00:00:01.60 bitrate=   3.6kbits/s speed=0.0647x elapsed=0:00:24.74    \nframe=   85 fps=3.4 q=37.0 size=       1KiB time=00:00:01.68 bitrate=   3.4kbits/s speed=0.0665x elapsed=0:00:25.27    \nframe=   87 fps=3.4 q=34.0 size=       1KiB time=00:00:01.72 bitrate=   3.3kbits/s speed=0.0667x elapsed=0:00:25.79    \nframe=   91 fps=3.5 q=37.0 size=       1KiB time=00:00:01.80 bitrate=   3.2kbits/s speed=0.0683x elapsed=0:00:26.33    \nframe=   97 fps=3.6 q=29.0 size=       1KiB time=00:00:01.92 bitrate=   3.0kbits/s speed=0.0714x elapsed=0:00:26.88    \nframe=  101 fps=3.7 q=36.0 size=       1KiB time=00:00:02.00 bitrate=   2.9kbits/s speed=0.0729x elapsed=0:00:27.42    \nframe=  103 fps=3.7 q=33.0 size=       1KiB time=00:00:02.04 bitrate=   2.8kbits/s speed=0.073x elapsed=0:00:27.94    \nframe=  107 fps=3.8 q=35.0 size=       1KiB time=00:00:02.12 bitrate=   2.7kbits/s speed=0.0744x elapsed=0:00:28.49    \nframe=  112 fps=3.9 q=39.0 size=       1KiB time=00:00:02.22 bitrate=   2.6kbits/s speed=0.0765x elapsed=0:00:29.02    \nframe=  115 fps=3.9 q=38.0 size=       1KiB time=00:00:02.28 bitrate=   2.5kbits/s speed=0.0772x elapsed=0:00:29.54    \nframe=  119 fps=4.0 q=34.0 size=       1KiB time=00:00:02.36 bitrate=   2.4kbits/s speed=0.0785x elapsed=0:00:30.07    \nframe=  123 fps=4.0 q=36.0 size=       1KiB time=00:00:02.44 bitrate=   2.3kbits/s speed=0.0797x elapsed=0:00:30.61    \nframe=  127 fps=4.1 q=36.0 size=       1KiB time=00:00:02.52 bitrate=   2.3kbits/s speed=0.0809x elapsed=0:00:31.14    \nframe=  131 fps=4.1 q=38.0 size=       1KiB time=00:00:02.60 bitrate=   2.2kbits/s speed=0.0821x elapsed=0:00:31.65    \nframe=  135 fps=4.2 q=38.0 size=       1KiB time=00:00:02.68 bitrate=   2.1kbits/s speed=0.0833x elapsed=0:00:32.18    \nframe=  139 fps=4.2 q=37.0 size=       1KiB time=00:00:02.76 bitrate=   2.1kbits/s speed=0.0844x elapsed=0:00:32.70    \nframe=  144 fps=4.3 q=39.0 size=       1KiB time=00:00:02.86 bitrate=   2.0kbits/s speed=0.086x elapsed=0:00:33.24    \nframe=  148 fps=4.4 q=39.0 size=       1KiB time=00:00:02.94 bitrate=   1.9kbits/s speed=0.0871x elapsed=0:00:33.76    \nframe=  151 fps=4.4 q=34.0 size=       1KiB time=00:00:03.00 bitrate=   1.9kbits/s speed=0.0875x elapsed=0:00:34.29    \nframe=  157 fps=4.5 q=33.0 size=       1KiB time=00:00:03.12 bitrate=   1.8kbits/s speed=0.0895x elapsed=0:00:34.85    \nframe=  161 fps=4.5 q=28.0 size=       1KiB time=00:00:03.20 bitrate=   1.8kbits/s speed=0.0904x elapsed=0:00:35.41    \nframe=  165 fps=4.6 q=36.0 size=       1KiB time=00:00:03.28 bitrate=   1.7kbits/s speed=0.0913x elapsed=0:00:35.92    \nframe=  169 fps=4.6 q=33.0 size=       1KiB time=00:00:03.36 bitrate=   1.7kbits/s speed=0.0922x elapsed=0:00:36.43    \nframe=  173 fps=4.7 q=34.0 size=       1KiB time=00:00:03.44 bitrate=   1.7kbits/s speed=0.0931x elapsed=0:00:36.96    \nframe=  181 fps=4.8 q=37.0 size=       1KiB time=00:00:03.60 bitrate=   1.6kbits/s speed=0.096x elapsed=0:00:37.48    \nframe=  185 fps=4.9 q=34.0 size=       1KiB time=00:00:03.68 bitrate=   1.6kbits/s speed=0.0968x elapsed=0:00:37.99    \nframe=  189 fps=4.9 q=34.0 size=       1KiB time=00:00:03.76 bitrate=   1.5kbits/s speed=0.0976x elapsed=0:00:38.51    \nframe=  193 fps=4.9 q=28.0 size=       1KiB time=00:00:03.84 bitrate=   1.5kbits/s speed=0.0983x elapsed=0:00:39.06    \nframe=  199 fps=5.0 q=34.0 size=       1KiB time=00:00:03.96 bitrate=   1.4kbits/s speed= 0.1x elapsed=0:00:39.57    \nframe=  201 fps=5.0 q=34.0 size=       1KiB time=00:00:04.00 bitrate=   1.4kbits/s speed=0.0998x elapsed=0:00:40.09    \nframe=  205 fps=5.0 q=33.0 size=       1KiB time=00:00:04.08 bitrate=   1.4kbits/s speed= 0.1x elapsed=0:00:40.60    \nframe=  211 fps=5.1 q=37.0 size=       1KiB time=00:00:04.20 bitrate=   1.4kbits/s speed=0.102x elapsed=0:00:41.14    \nframe=  217 fps=5.2 q=33.0 size=       1KiB time=00:00:04.32 bitrate=   1.3kbits/s speed=0.104x elapsed=0:00:41.67    \nframe=  219 fps=5.2 q=37.0 size=       1KiB time=00:00:04.36 bitrate=   1.3kbits/s speed=0.103x elapsed=0:00:42.21    \nframe=  223 fps=5.2 q=37.0 size=       1KiB time=00:00:04.44 bitrate=   1.3kbits/s speed=0.104x elapsed=0:00:42.75    \nframe=  229 fps=5.3 q=38.0 size=       1KiB time=00:00:04.56 bitrate=   1.3kbits/s speed=0.105x elapsed=0:00:43.27    \nframe=  233 fps=5.3 q=35.0 size=       1KiB time=00:00:04.64 bitrate=   1.2kbits/s speed=0.106x elapsed=0:00:43.79    \nframe=  237 fps=5.3 q=38.0 size=       1KiB time=00:00:04.72 bitrate=   1.2kbits/s speed=0.107x elapsed=0:00:44.31    \n[out#0/matroska @ 000001e620c0e9c0] video:5146KiB audio:0KiB subtitle:0KiB other streams:0KiB global headers:0KiB muxing overhead: 0.037592%\nframe=  250 fps=5.6 q=38.0 Lsize=    5148KiB time=00:00:04.98 bitrate=8468.7kbits/s speed=0.111x elapsed=0:00:44.77    \n",
  "seconds": 45.2953360080719,
  "probe_out": {}
}